#!OML:ASF H:\MichaelJackson\Top Level 1\Subject 1\Session 1\male.ASF
:FULLY-SPECIFIED
:DEGREES
104
root 5.1712 16.8651 -28.867 9.37609 5.00366 -4.04836
lowerback -4.22486 1.58596 -1.84828
upperback -0.90686 2.14501 3.72941
thorax 1.22317 1.07085 5.00137
lowerneck -9.79737 -2.63365 -3.90105
upperneck -1.38834 -3.08661 1.17423
head 1.30462 -1.50282 0.905408
rclavicle 2.11706e-014 1.74931e-014
rhumerus -35.7265 10.6995 -88.5281
rradius 36.8395
rwrist 13.5287
rhand -24.8314 -20.3206
rfingers 7.12502
rthumb 1.67441 -50.2937
lclavicle 2.11706e-014 1.74931e-014
lhumerus -39.0498 -5.40849 98.3568
lradius 41.7122
lwrist 6.46753
lhand -9.43009 -0.58894
lfingers 7.12502
lthumb 16.5324 28.7268
rfemur -15.9787 0.383606 22.9521
rtibia 28.9098
rfoot -19.2595 -12.4996
rtoes -0.875062
lfemur -33.5161 11.7247 -14.0342
ltibia 42.5518
lfoot -14.2683 8.82412
ltoes 15.1147
105
root 5.20692 16.8597 -28.8355 9.33231 5.00853 -4.1154
lowerback -4.28592 1.61772 -1.89819
upperback -0.920611 2.1894 3.78756
thorax 1.23447 1.09318 5.09467
lowerneck -9.80286 -2.63855 -3.88346
upperneck -1.35766 -3.09351 1.11351
head 1.31392 -1.50784 0.882702
rclavicle 3.97569e-016 -8.74653e-015
rhumerus -35.72 10.9625 -88.4697
rradius 37.1178
rwrist 13.3929
rhand -24.7621 -20.2666
rfingers 7.12502
rthumb 1.74136 -50.2392
lclavicle 3.97569e-016 -8.74653e-015
lhumerus -39.2299 -5.17936 98.3174
lradius 41.709
lwrist 6.50178
lhand -8.79547 -0.809057
lfingers 7.12502
lthumb 17.1433 28.4546
rfemur -15.7724 0.295025 22.9003
rtibia 28.8675
rfoot -19.3808 -12.4869
rtoes -1.26945
lfemur -33.322 11.588 -13.909
ltibia 42.1654
lfoot -13.9697 8.90012
ltoes 13.7365
106
root 5.24428 16.853 -28.8024 9.27951 5.01972 -4.18685
lowerback -4.35332 1.65157 -1.94294
upperback -0.937036 2.23646 3.84517
thorax 1.24633 1.1169 5.1849
lowerneck -9.80447 -2.64822 -3.86215
upperneck -1.31765 -3.10746 1.06107
head 1.32586 -1.51632 0.861691
rclavicle 1.14301e-014 -1.11319e-014
rhumerus -35.7348 11.2072 -88.3976
rradius 37.4248
rwrist 13.2408
rhand -24.674 -20.2099
rfingers 7.12502
rthumb 1.82643 -50.1819
lclavicle 1.14301e-014 -1.11319e-014
lhumerus -39.4347 -4.98768 98.2994
lradius 41.7471
lwrist 6.66388
lhand -8.28468 -0.924752
lfingers 7.12502
lthumb 17.6349 28.2955
rfemur -15.557 0.179163 22.8483
rtibia 28.8432
rfoot -19.5167 -12.4604
rtoes -1.70728
lfemur -33.0971 11.4584 -13.7936
ltibia 41.8161
lfoot -13.76 8.95113
ltoes 12.1891
107
root 5.28357 16.8448 -28.768 9.23556 5.038 -4.26327
lowerback -4.43578 1.68802 -1.98018
upperback -0.96582 2.28702 3.90221
thorax 1.25364 1.14272 5.27084
lowerneck -9.7991 -2.66373 -3.83808
upperneck -1.26515 -3.12992 1.0168
head 1.34099 -1.52902 0.84246
rclavicle 2.56432e-014 -3.10104e-014
rhumerus -35.7822 11.4321 -88.3084
rradius 37.7678
rwrist 13.0743
rhand -24.5676 -20.1402
rfingers 7.12502
rthumb 1.92918 -50.1112
lclavicle 2.56432e-014 -3.10104e-014
lhumerus -39.6671 -4.83097 98.3051
lradius 41.8274
lwrist 6.93595
lhand -7.87971 -0.924108
lfingers 7.12502
lthumb 18.0246 28.2607
rfemur -15.3614 0.00811486 22.795
rtibia 28.8484
rfoot -19.6767 -12.3906
rtoes -2.15871
lfemur -32.8582 11.3314 -13.6888
ltibia 41.5107
lfoot -13.679 8.9949
ltoes 10.6304
108
root 5.32456 16.8353 -28.7322 9.19517 5.07408 -4.34527
lowerback -4.5049 1.72028 -2.00595
upperback -1.02084 2.33211 3.95778
thorax 1.22736 1.16701 5.34737
lowerneck -9.78682 -2.68046 -3.81351
upperneck -1.18506 -3.15453 0.983352
head 1.36417 -1.54286 0.826456
rclavicle -4.67641e-014 -5.4467e-014
rhumerus -35.8922 11.6326 -88.2092
rradius 38.1575
rwrist 12.9108
rhand -24.4326 -20.0472
rfingers 7.12502
rthumb 2.05954 -50.017
lclavicle -4.67641e-014 -5.4467e-014
lhumerus -39.9465 -4.69621 98.3256
lradius 41.9531
lwrist 7.29143
lhand -7.53076 -0.808989
lfingers 7.12502
lthumb 18.3603 28.3445
rfemur -15.1808 -0.224239 22.7431
rtibia 28.8889
rfoot -19.8639 -12.2767
rtoes -2.60407
lfemur -32.5973 11.1802 -13.583
ltibia 41.2543
lfoot -13.7625 9.02424
ltoes 9.28938
109
root 5.36696 16.8241 -28.6951 9.15075 5.14583 -4.43002
lowerback -4.55929 1.74351 -2.02664
upperback -1.09803 2.36549 4.01338
thorax 1.1713 1.18653 5.41941
lowerneck -9.76731 -2.70132 -3.78421
upperneck -1.07927 -3.18549 0.95336
head 1.39459 -1.56007 0.810435
rclavicle 1.06847e-014 9.14409e-015
rhumerus -36.0594 11.7917 -88.0885
rradius 38.5957
rwrist 12.758
rhand -24.248 -19.921
rfingers 7.12502
rthumb 2.23781 -49.889
lclavicle 1.06847e-014 9.14409e-015
lhumerus -40.2619 -4.58358 98.36
lradius 42.116
lwrist 7.68444
lhand -7.18695 -0.593307
lfingers 7.12502
lthumb 18.691 28.5287
rfemur -15.0044 -0.527576 22.6928
rtibia 28.9641
rfoot -20.0773 -12.1202
rtoes -3.00209
lfemur -32.3091 10.9837 -13.4699
ltibia 41.0466
lfoot -14.0098 9.03702
ltoes 8.31597
